<mxfile host="app.diagrams.net" modified="2021-12-14T09:08:24.292Z" agent="5.0 (X11; Linux x86_64) AppleWebKit/537.36 (KHTML, like Gecko) Chrome/96.0.4664.97 Safari/537.36" etag="sJ7izxanN7JSJQghj8yN" version="15.9.6" type="github">
  <diagram id="OE1M7ZPgb1aCPRFbUGyD" name="Page-1">
    <mxGraphModel dx="815" dy="430" grid="1" gridSize="10" guides="1" tooltips="1" connect="1" arrows="1" fold="1" page="1" pageScale="1" pageWidth="827" pageHeight="1169" math="0" shadow="0">
      <root>
        <mxCell id="0" />
        <mxCell id="1" parent="0" />
        <mxCell id="-2OeGH3vRiLyGojKV4xz-1" value="" style="shape=ext;double=1;whiteSpace=wrap;html=1;" vertex="1" parent="1">
          <mxGeometry y="120" width="720" height="130" as="geometry" />
        </mxCell>
        <mxCell id="-2OeGH3vRiLyGojKV4xz-2" value="" style="shape=image;html=1;verticalLabelPosition=bottom;verticalAlign=top;imageAspect=1;aspect=fixed;image=data:image/svg+xml,PHN2ZyB4bWxucz0iaHR0cDovL3d3dy53My5vcmcvMjAwMC9zdmciIHhtbG5zOnhsaW5rPSJodHRwOi8vd3d3LnczLm9yZy8xOTk5L3hsaW5rIiB2ZXJzaW9uPSIxLjEiIHdpZHRoPSIxMTVweCIgaGVpZ2h0PSIxMTVweCIgdmlld0JveD0iLTAuNSAtMC41IDExNSAxMTUiIGNvbnRlbnQ9IiZsdDtteGZpbGUgaG9zdD0mcXVvdDthcHAuZGlhZ3JhbXMubmV0JnF1b3Q7IG1vZGlmaWVkPSZxdW90OzIwMjEtMTItMTRUMDk6MDI6MTYuNDk1WiZxdW90OyBhZ2VudD0mcXVvdDs1LjAgKFgxMTsgTGludXggeDg2XzY0KSBBcHBsZVdlYktpdC81MzcuMzYgKEtIVE1MLCBsaWtlIEdlY2tvKSBDaHJvbWUvOTYuMC40NjY0Ljk3IFNhZmFyaS81MzcuMzYmcXVvdDsgZXRhZz0mcXVvdDtLMXB5UEtrVEp2Vk50ejZSakJ4VCZxdW90OyB2ZXJzaW9uPSZxdW90OzE1LjkuNiZxdW90OyB0eXBlPSZxdW90O2dpdGh1YiZxdW90OyZndDsmbHQ7ZGlhZ3JhbSBpZD0mcXVvdDsxOFBndThkM3pHX2x6SWdLTW1lMyZxdW90OyBuYW1lPSZxdW90O1BhZ2UtMSZxdW90OyZndDsxWlhmYjlvd0VNZi9HaDVCeE9GWEh3bUZybE0zVFVKVHRhZkl4RWRpNGVRaXh3R3p2MzdueENtaHRGUDdNbWs4QlB0emw5emQ5eTdPSUZ6bDlrSHpNdnVHQXRTQWpZVWRoUGNEeHFaM2QzUjE0TnlDa0FVdFNMVVVMZXFCcmZ3TkhvNDlyYVdBNnNyUklDb2p5MnVZWUZGQVlxNFkxeHBQMTI1N1ZOZFJTNTdDRGRnbVhOM1NaeWxNMXRJRm0xLzRGNUJwMWtVT1pyN2duSGZPdnBJcTR3SlBQUlN1QitGS0k1cDJsZHNWS0tkZHAwdDczK1lkNjB0aUdncnpvUnNlNi9VdnV5MmZsQkxCNXFlTmptWTk5RTg1Y2xYN2duMnk1dHdwUUhtWGJnbVd3a1FDNjExakNXaHp5cVNCYmNrVEIwN1VmMktaeVpVMzg2cHNXN0tYRmlpTDZEYmxMajVvQTdhSGZBa1BnRGtZZlNZWGJ3MW5YazQvVDBHM1AvVzY0MUhXYTB6SHVKK0g5T1hKRjhsbzRWWDdoSUxzbnlvb3BDWWdzU0JXWWUwcWpqUWE3dEZrK3YrckhDYjJlTGJCVnlzTWZqL1V6N3Q1OURpY2ZseGxtVGV2ZEY5R1Y3aWtkM3FwWk9wa01sajI2QlBmZ2ZxQmxmUWk3dEFZek1sQk9VUEVrME9xc1M3RUNoWHFKbGE0YjM3azBnUmJkbDBhdjlVeW44OTlab3c3czVaT0NMWkpSREVaU1RxMTlySVFvRWNKUldRYndRMm5QOGNycHhNM29DVWZWcGhJcm9aN0RVQ1VUZWd5RGhmeG1NMWpxbHBEbk5DeEd5dFpIR0pYZGN3TG9WR0syTit2aGdGYmpNb2lmV2NNM2hpV3Ywekc3TlZrekc0bVk3YTRuWXlPZldJeWFIczVIUnRiN3hNVHJ2OEEmbHQ7L2RpYWdyYW0mZ3Q7Jmx0Oy9teGZpbGUmZ3Q7Ij48ZGVmcy8+PGc+PHJlY3QgeD0iMTciIHk9IjE3IiB3aWR0aD0iODAiIGhlaWdodD0iODAiIGZpbGw9InJnYigyNTUsIDI1NSwgMjU1KSIgc3Ryb2tlPSJyZ2IoMCwgMCwgMCkiIHBvaW50ZXItZXZlbnRzPSJhbGwiLz48cmVjdCB4PSIxOSIgeT0iMTkiIHdpZHRoPSI3NiIgaGVpZ2h0PSI3NiIgZmlsbD0icmdiKDI1NSwgMjU1LCAyNTUpIiBzdHJva2U9InJnYigwLCAwLCAwKSIgcG9pbnRlci1ldmVudHM9ImFsbCIvPjxyZWN0IHg9IjE3IiB5PSIxNyIgd2lkdGg9IjgwIiBoZWlnaHQ9IjgwIiBmaWxsPSJyZ2IoMjU1LCAyNTUsIDI1NSkiIHN0cm9rZT0icmdiKDAsIDAsIDApIiB0cmFuc2Zvcm09InJvdGF0ZSgxMzUsNTcsNTcpIiBwb2ludGVyLWV2ZW50cz0iYWxsIi8+PHJlY3QgeD0iMTkiIHk9IjE5IiB3aWR0aD0iNzYiIGhlaWdodD0iNzYiIGZpbGw9InJnYigyNTUsIDI1NSwgMjU1KSIgc3Ryb2tlPSJyZ2IoMCwgMCwgMCkiIHRyYW5zZm9ybT0icm90YXRlKDEzNSw1Nyw1NykiIHBvaW50ZXItZXZlbnRzPSJhbGwiLz48aW1hZ2UgeD0iMjIuNSIgeT0iMjIuNSIgd2lkdGg9IjY4IiBoZWlnaHQ9IjY4IiB4bGluazpocmVmPSJkYXRhOmltYWdlL3BuZztiYXNlNjQsaVZCT1J3MEtHZ29BQUFBTlNVaEVVZ0FBQUlBQUFBQ0FDQVlBQUFERFBtSExBQUFBQVhOU1IwSUFyczRjNlFBQUJXbEpSRUZVZUY3dG5idXFGRUVVUmJlWUtENit3TkRNd05RM0dpaUNyMEFUUDhGSU0vRVBORklqUDhGVThRMCtJeU1EQTNNRmMwRlFVUkNrWUJxSHViZW51eDVkZFU3dlBlbnRtdHZuck5XN3FudDZlclpBTCtvT2JLR3VYc1ZEQXBCTElBRWtBSGtIeU10WEFrZ0E4ZzZRbDY4RWtBRGtIU0F2WHdrZ0FjZzdRRjYrRWtBQ2tIZUF2SHdsZ0FRZzd3QjUrVW9BQ1VEZUFmTHlsUUFTZ0x3RDVPVXJBU1FBZVFmSXkxY0NTQUR5RHBDWHJ3U1FBT1FkSUM5ZkNTQUJ5RHRBWHI0U1FBS1FkNEM4ZkNXQUJIRFZnZDBBemdDNGIzU3ZMd040QXVDNzBmM2JzRnVlRWlEQWZ3SGdBSUFiQUc0YWEvSTFBTGNCZkFCd0VzQTNZL3UzNmU1NEVXQVpmbGVJSlFrNitOMit1WkhBZ3dDYndiY2t3U3A4VnhKWUYyQWRmQXNTOU1GM0k0RmxBY2JBYnluQkVId1hFbGdWSUFaK0N3bkd3amN2Z1VVQkF2em5BQTRtcktJRG1Mc0o0MktHWEFWd0oyYkFZdHYzQUU1Yk8wVzBKa0RLa2QreCtBM2dFb0RIQ1hCaWhwd0M4QURBOXBoQmkyM05uUjFZRWlBWC9zWEZSWmdFTHRGRHdubit3emxJWUVVQVQvQTdXMlloZ1FVQlBNS2ZqUVN0QmNpQi93dkFlUUF2b3dPODdJQmpBSjRDMkpId3RzM1hCQzBGbUFQOGpybGJDVm9KTUNmNHl4S0VUd0ozZWtxQ0ZnTGt3UDhKNElLQjJPOWpISkxBbFFTMUJjaUZIK2I4VndsSFdNMGhSeGRyQWhkSlVGTUFCdmlkYUc0a3FDVUFFM3hYRXRRUUlCZitPUUN2YTJaNHdmOWxQZ21tRm9BWnZvc2ttRklBd2Y4ZkpVY0FQTE40aWppVkFJSy9jUjR4S2NFVUFnaCsveUlpU0JBdUcrOUtXR2RNY3RtNHRBQzU4TThDZUpQUUhFOURURWxRVWdEQkg2L2g0Y1dhb0hrU2xCSkE4TWZENzdZMElVRUpBWExnL3dBUXp2UG5IdnQ5ZWpTWElGZUFYUGhoem44YmYvRE1ha1JUQ1hJRUVQeHlIaDVhM0FsZGZVMlFLb0RnbDRQZnZWTVRDVklFRVB6eThKY2xDRmNNUTQ5algwblhDV0lGeUlVZnZ0di9Mcll5c3UxREVsU1RJRVlBd2E5bllqVUpZZ1FJZDcyR3k1amh0cWZZVnpqZDA0cC9mTmR5QklqNkNscU1BR0gzSmNGNGlLbGI1aXdHbytDSEhZd1ZRQktrWWgwM3JpcjhWQUVrd1RpWXNWdmxYQkNLUHZLN25VdEpnRzVzN25UQWZBbDRWWTRtOEhNU29JUUU0UjUvaG85L2g1S2dHZndTQXVST0Ird1NOSVZmU2dCSk1IU01iLzczbkJ0RGt1ZjgxVjNKV1FPc3ZsZk9tb0F0Q1V6QUw1a0FwZFlFbnI4RE1EWUh6TUNmUW9BUzA4R2NKY2k1TTdoWTdDK2JXbklLV0g3ZjNPbGdqaExrZkV0b0V2aFRKWUNtZzQyVGdVbjRVd3RRWWpydzhIWHdvYm5mTFB3YUFyQkxZQnArTFFGS1NHRDVxU0I5Q1pEenRKREo1dndwcndNTVJXSE93dERLRThHR2F1eis3Z0orelFRb3NURDBJb0ViK0MwRXlKME9yRXVRODdpNGFyRmY0enJBVUZUT2NUcHdCNzlWQXBTWURzS1R3V3MrSEhwSTZKem5CamM1OHJ1Q3Byb1NPTlN3T1VuZ0ZuN3JCQ2dsUVkzZkNPZ1RPdWUzQTVvZStWWVN3TE1FN3VGYlNRQ1BFc3dDdmpVQmNrOFIveXgrTXViUjJBVkk0bllCZnZpMWtHMEo0MDNFdm9YVHdIVzl5L25ScUU4QTlnUDRtd0JuekpDdEFENEMyRGRtNDVWdHpNRzNtQUE1MDhFWEFNY0JmRTZBRXpOa3orS0pKbnNqQnBtRWIxbUEyT21nRnZ5T2VZd0VadUZiRjJDc0JMWGh4MGhnR3I0SEFZWWtDSEYvb2tMczk2WDl1aVF3RDkrTEFIMFN0SWEvTGdsY3dQY2t3S29FVnVCdkpvRWIrTjRFQ1BzYlRoSHZBYmdPNEd2RUtyekdwbUU2dUFYZ2lyWGZCMTVYZk9zUGcycUEwZjlZMHdFSlFLNkhCSkFBNUIwZ0wxOEpJQUhJTzBCZXZoSkFBcEIzZ0x4OEpZQUVJTzhBZWZsS0FBbEEzZ0h5OHBVQUVvQzhBK1RsS3dFa0FIa0h5TXRYQWtnQThnNlFsNjhFa0FEa0hTQXZYd2tnQWNnN1FGNitFa0FDa0hlQXZId2xnQVFnN3dCNStVb0FDVURlQWZMeWxRQVNnTHdENU9YL0E0SzdqSkJSWnNUY0FBQUFBRWxGVGtTdVFtQ0MiIHByZXNlcnZlQXNwZWN0UmF0aW89Im5vbmUiLz48L2c+PC9zdmc+;" vertex="1" parent="1">
          <mxGeometry x="300" y="125" width="120" height="120" as="geometry" />
        </mxCell>
        <mxCell id="-2OeGH3vRiLyGojKV4xz-5" value="" style="shape=ext;double=1;whiteSpace=wrap;html=1;" vertex="1" parent="1">
          <mxGeometry x="10" y="184" width="280" height="2" as="geometry" />
        </mxCell>
        <mxCell id="-2OeGH3vRiLyGojKV4xz-6" value="" style="shape=ext;double=1;whiteSpace=wrap;html=1;" vertex="1" parent="1">
          <mxGeometry x="430" y="184" width="280" height="2" as="geometry" />
        </mxCell>
      </root>
    </mxGraphModel>
  </diagram>
</mxfile>
